<svg xmlns="http://www.w3.org/2000/svg" width="1600" height="900" fill="none" style="color-scheme:light dark" viewBox="0 0 1600 900"><style>text{font-family:&quot;Space Grotesk&quot;,&quot;Sora&quot;,&quot;IBM Plex Sans&quot;,sans-serif}</style><defs><radialGradient id="glow" cx="0" cy="0" r="1" gradientTransform="rotate(45 -250.416 556.274)scale(420)" gradientUnits="userSpaceOnUse"><stop stop-color="#22C55E" stop-opacity=".35"/><stop offset="1" stop-color="#22C55E" stop-opacity="0"/></radialGradient><clipPath id="heroClip"><rect width="1600" height="900" rx="36"/></clipPath></defs><g clip-path="url(#heroClip)"><path fill="#0B0D12" d="M0 0h1600v900H0z"/><path fill="url(#glow)" d="M0 0h1600v900H0z"/><path stroke="#1F2A37" d="M80 0v900M160 0v900M240 0v900M320 0v900M400 0v900M480 0v900M560 0v900M640 0v900M720 0v900M800 0v900M880 0v900M960 0v900m80-900v900m80-900v900m80-900v900m80-900v900m80-900v900m80-900v900m80-900v900M0 80h1600M0 160h1600M0 240h1600M0 320h1600M0 400h1600M0 480h1600M0 560h1600M0 640h1600M0 720h1600M0 800h1600M0 880h1600" opacity=".25"/><g transform="translate(120 220)scale(6.5625)"><g clip-path="url(#clip0_314_107)"><path fill="url(#paint0_linear_314_107)" d="M52 0H12C5.373 0 0 5.373 0 12v40c0 6.627 5.373 12 12 12h40c6.627 0 12-5.373 12-12V12c0-6.627-5.373-12-12-12"/><path fill="#fff" d="M50 16H14a2 2 0 0 0-2 2v24a2 2 0 0 0 2 2h36a2 2 0 0 0 2-2V18a2 2 0 0 0-2-2" opacity=".9"/><path fill="#1E88E5" d="M49 18H15a1 1 0 0 0-1 1v22a1 1 0 0 0 1 1h34a1 1 0 0 0 1-1V19a1 1 0 0 0-1-1"/><path fill="#1CD12B" stroke="#fff" stroke-width="2" d="M44 48c6.627 0 12-5.373 12-12s-5.373-12-12-12-12 5.373-12 12 5.373 12 12 12Z"/><path fill="#fff" d="M36 44h-8v4h8zm6 4H22v2h20z" opacity=".9"/><path stroke="#fff" stroke-linecap="round" stroke-linejoin="round" stroke-width="2" d="m38 36 4 4 8-8"/></g><defs><linearGradient id="paint0_linear_314_107" x1="0" x2="4096" y1="0" y2="4096" gradientUnits="userSpaceOnUse"><stop stop-color="#42A5F5"/><stop offset="1" stop-color="#1E88E5"/></linearGradient><clipPath id="clip0_314_107"><path fill="#fff" d="M0 0h64v64H0z"/></clipPath></defs></g><text x="760" y="320" fill="#E6EDF7" font-size="68" font-weight="700" letter-spacing="-.02em">works-on-my</text><text x="760" y="392" fill="#E6EDF7" font-size="68" font-weight="700" letter-spacing="-.02em">machine-badge</text><text x="760" y="488" fill="#9AA8BD" font-size="30">A badge that reports the truth from CI.</text><g transform="translate(760 540)"><rect width="145" height="40" fill="#111827" stroke="#263142" rx="20"/><text x="73" y="20" fill="#E6EDF7" dominant-baseline="middle" font-size="24" text-anchor="middle">Repo badge</text></g><g transform="translate(919 540)"><rect width="145" height="40" fill="#111827" stroke="#263142" rx="20"/><text x="73" y="20" fill="#E6EDF7" dominant-baseline="middle" font-size="24" text-anchor="middle">PR comment</text></g><g transform="translate(1078 540)"><rect width="157" height="40" fill="#111827" stroke="#263142" rx="20"/><text x="79" y="20" fill="#E6EDF7" dominant-baseline="middle" font-size="24" text-anchor="middle">No services</text></g></g></svg>