<svg xmlns="http://www.w3.org/2000/svg" width="1600" height="900" fill="none" style="color-scheme:light dark" viewBox="0 0 1600 900"><style>text{font-family:&quot;Space Grotesk&quot;,&quot;Sora&quot;,&quot;IBM Plex Sans&quot;,sans-serif}</style><defs><radialGradient id="glow" cx="0" cy="0" r="1" gradientTransform="rotate(45 -250.416 556.274)scale(420)" gradientUnits="userSpaceOnUse"><stop stop-color="#22C55E" stop-opacity=".35"/><stop offset="1" stop-color="#22C55E" stop-opacity="0"/></radialGradient></defs><path fill="#0B0D12" d="M0 0h1600v900H0z"/><path fill="url(#glow)" d="M0 0h1600v900H0z"/><path stroke="#1F2A37" d="M80 0v900M160 0v900M240 0v900M320 0v900M400 0v900M480 0v900M560 0v900M640 0v900M720 0v900M800 0v900M880 0v900M960 0v900m80-900v900m80-900v900m80-900v900m80-900v900m80-900v900m80-900v900m80-900v900M0 80h1600M0 160h1600M0 240h1600M0 320h1600M0 400h1600M0 480h1600M0 560h1600M0 640h1600M0 720h1600M0 800h1600M0 880h1600" opacity=".25"/><g transform="translate(120 220)scale(6.5625)"><rect width="64" height="64" fill="url(#grad2)" data-fg-bgim1="1.16:1.1237:/src/app/components/repo-icons/WorksOnMyMachineIcon.tsx:4:7:135:57:e:rect" rx="12"/><defs data-fg-bgim2="1.16:1.1237:/src/app/components/repo-icons/WorksOnMyMachineIcon.tsx:5:7:199:216:e:defs"><linearGradient id="grad2" x1="0" x2="64" y1="0" y2="64" data-fg-bgim3="1.16:1.1237:/src/app/components/repo-icons/WorksOnMyMachineIcon.tsx:6:9:214:187:e:linearGradient"><stop data-fg-bgim4="1.16:1.1237:/src/app/components/repo-icons/WorksOnMyMachineIcon.tsx:7:11:282:40:e:stop" offset="0%" stop-color="#42A5F5"/><stop data-fg-bgim5="1.16:1.1237:/src/app/components/repo-icons/WorksOnMyMachineIcon.tsx:8:11:333:42:e:stop" offset="100%" stop-color="#1E88E5"/></linearGradient></defs><rect width="40" height="28" x="12" y="16" fill="#fff" data-fg-bgim7="1.16:1.1237:/src/app/components/repo-icons/WorksOnMyMachineIcon.tsx:12:7:453:78:e:rect" opacity=".9" rx="2"/><rect width="36" height="24" x="14" y="18" fill="#1E88E5" data-fg-bgim8="1.16:1.1237:/src/app/components/repo-icons/WorksOnMyMachineIcon.tsx:13:7:538:66:e:rect" rx="1"/><circle cx="44" cy="36" r="12" fill="#FFD54F" stroke="#fff" stroke-width="2" data-fg-bgim10="1.16:1.1237:/src/app/components/repo-icons/WorksOnMyMachineIcon.tsx:15:7:642:78:e:circle"/><path fill="#FB8C00" d="m44 30 2 5 5 1-5 2-2 5-2-5-5-2 5-1Z" data-fg-bgim11="1.16:1.1237:/src/app/components/repo-icons/WorksOnMyMachineIcon.tsx:16:7:727:109:e:path"/><path fill="#fff" d="M28 44h8v4h-8z" data-fg-bgim13="1.16:1.1237:/src/app/components/repo-icons/WorksOnMyMachineIcon.tsx:21:7:871:69:e:rect" opacity=".9"/><path fill="#fff" d="M22 48h20v2H22z" data-fg-bgim14="1.16:1.1237:/src/app/components/repo-icons/WorksOnMyMachineIcon.tsx:22:7:947:70:e:rect" opacity=".9"/><path stroke="#fff" stroke-linecap="round" stroke-linejoin="round" stroke-width="2" d="m22 28 4 4 8-8" data-fg-bgim16="1.16:1.1237:/src/app/components/repo-icons/WorksOnMyMachineIcon.tsx:24:7:1058:160:e:path"/></g><text x="760" y="320" fill="#E6EDF7" font-size="68" font-weight="700" letter-spacing="-.02em">works-on-my</text><text x="760" y="392" fill="#E6EDF7" font-size="68" font-weight="700" letter-spacing="-.02em">machine-badge</text><text x="760" y="488" fill="#9AA8BD" font-size="30">A badge that reports the truth from CI.</text><g transform="translate(760 540)"><rect width="170" height="40" fill="#111827" stroke="#263142" rx="20"/><text x="18" y="26" fill="#E6EDF7" font-size="24">Repo badge</text></g><g transform="translate(944 540)"><rect width="170" height="40" fill="#111827" stroke="#263142" rx="20"/><text x="18" y="26" fill="#E6EDF7" font-size="24">PR comment</text></g><g transform="translate(1128 540)"><rect width="184" height="40" fill="#111827" stroke="#263142" rx="20"/><text x="18" y="26" fill="#E6EDF7" font-size="24">No services</text></g><g opacity=".6"><circle cx="1320" cy="260" r="6" fill="#22C55E"/><circle cx="1360" cy="260" r="6" fill="#22C55E"/><circle cx="1400" cy="260" r="6" fill="#22C55E"/><rect width="180" height="12" x="1240" y="300" fill="#22C55E" fill-opacity=".35" rx="6"/><rect width="220" height="12" x="1240" y="330" fill="#22C55E" fill-opacity=".18" rx="6"/><rect width="150" height="12" x="1240" y="360" fill="#22C55E" fill-opacity=".28" rx="6"/></g></svg>