<svg xmlns="http://www.w3.org/2000/svg" width="1280" height="640" fill="none" style="color-scheme:light dark" viewBox="0 0 1280 640"><style>text{font-family:&quot;Space Grotesk&quot;,&quot;Sora&quot;,&quot;IBM Plex Sans&quot;,sans-serif}</style><defs><linearGradient id="edge" x1="0" x2="1" y1="0" y2="1"><stop offset="0" stop-color="#22C55E" stop-opacity=".18"/><stop offset="1" stop-color="#22C55E" stop-opacity="0"/></linearGradient></defs><path fill="#0B0D12" d="M0 0h1280v640H0z"/><path fill="url(#edge)" d="M0 0h1280v640H0z"/><path stroke="#1F2A37" d="M80 0v640M160 0v640M240 0v640M320 0v640M400 0v640M480 0v640M560 0v640M640 0v640M720 0v640M800 0v640M880 0v640M960 0v640m80-640v640m80-640v640m80-640v640M0 80h1280M0 160h1280M0 240h1280M0 320h1280M0 400h1280M0 480h1280M0 560h1280" opacity=".22"/><g transform="translate(140 200)scale(3.75)"><g clip-path="url(#clip0_314_107)"><path fill="url(#paint0_linear_314_107)" d="M52 0H12C5.373 0 0 5.373 0 12v40c0 6.627 5.373 12 12 12h40c6.627 0 12-5.373 12-12V12c0-6.627-5.373-12-12-12"/><path fill="#fff" d="M50 16H14a2 2 0 0 0-2 2v24a2 2 0 0 0 2 2h36a2 2 0 0 0 2-2V18a2 2 0 0 0-2-2" opacity=".9"/><path fill="#1E88E5" d="M49 18H15a1 1 0 0 0-1 1v22a1 1 0 0 0 1 1h34a1 1 0 0 0 1-1V19a1 1 0 0 0-1-1"/><path fill="#1CD12B" stroke="#fff" stroke-width="2" d="M44 48c6.627 0 12-5.373 12-12s-5.373-12-12-12-12 5.373-12 12 5.373 12 12 12Z"/><path fill="#fff" d="M36 44h-8v4h8zm6 4H22v2h20z" opacity=".9"/><path stroke="#fff" stroke-linecap="round" stroke-linejoin="round" stroke-width="2" d="m38 36 4 4 8-8"/></g><defs><linearGradient id="paint0_linear_314_107" x1="0" x2="4096" y1="0" y2="4096" gradientUnits="userSpaceOnUse"><stop stop-color="#42A5F5"/><stop offset="1" stop-color="#1E88E5"/></linearGradient><clipPath id="clip0_314_107"><path fill="#fff" d="M0 0h64v64H0z"/></clipPath></defs></g><text x="520" y="270" fill="#E6EDF7" font-size="54" font-weight="700" letter-spacing="-.02em">works-on-my</text><text x="520" y="328" fill="#E6EDF7" font-size="54" font-weight="700" letter-spacing="-.02em">machine-badge</text><text x="520" y="408" fill="#9AA8BD" font-size="26">Repo-only badges that update from real CI</text><text x="520" y="440" fill="#9AA8BD" font-size="26">results.</text><g transform="translate(520 420)"><rect width="134" height="40" fill="#111827" stroke="#263142" rx="20"/><text x="67" y="20" fill="#E6EDF7" dominant-baseline="middle" font-size="22" text-anchor="middle">Repo badge</text></g><g transform="translate(668 420)"><rect width="134" height="40" fill="#111827" stroke="#263142" rx="20"/><text x="67" y="20" fill="#E6EDF7" dominant-baseline="middle" font-size="22" text-anchor="middle">PR comment</text></g><rect width="200" height="12" x="980" y="460" fill="#22C55E" fill-opacity=".25" rx="6"/><rect width="160" height="12" x="980" y="488" fill="#22C55E" fill-opacity=".35" rx="6"/></svg>