<svg xmlns="http://www.w3.org/2000/svg" width="1280" height="640" fill="none" style="color-scheme:light dark" viewBox="0 0 1280 640"><style>text{font-family:&quot;Space Grotesk&quot;,&quot;Sora&quot;,&quot;IBM Plex Sans&quot;,sans-serif}</style><defs><linearGradient id="edge" x1="0" x2="1" y1="0" y2="1"><stop offset="0" stop-color="#22C55E" stop-opacity=".18"/><stop offset="1" stop-color="#22C55E" stop-opacity="0"/></linearGradient></defs><path fill="#0B0D12" d="M0 0h1280v640H0z"/><path fill="url(#edge)" d="M0 0h1280v640H0z"/><path stroke="#1F2A37" d="M80 0v640M160 0v640M240 0v640M320 0v640M400 0v640M480 0v640M560 0v640M640 0v640M720 0v640M800 0v640M880 0v640M960 0v640m80-640v640m80-640v640m80-640v640M0 80h1280M0 160h1280M0 240h1280M0 320h1280M0 400h1280M0 480h1280M0 560h1280" opacity=".22"/><g transform="translate(140 200)scale(3.75)"><rect width="64" height="64" fill="url(#grad2)" data-fg-bgim1="1.16:1.1237:/src/app/components/repo-icons/WorksOnMyMachineIcon.tsx:4:7:135:57:e:rect" rx="12"/><defs data-fg-bgim2="1.16:1.1237:/src/app/components/repo-icons/WorksOnMyMachineIcon.tsx:5:7:199:216:e:defs"><linearGradient id="grad2" x1="0" x2="64" y1="0" y2="64" data-fg-bgim3="1.16:1.1237:/src/app/components/repo-icons/WorksOnMyMachineIcon.tsx:6:9:214:187:e:linearGradient"><stop data-fg-bgim4="1.16:1.1237:/src/app/components/repo-icons/WorksOnMyMachineIcon.tsx:7:11:282:40:e:stop" offset="0%" stop-color="#42A5F5"/><stop data-fg-bgim5="1.16:1.1237:/src/app/components/repo-icons/WorksOnMyMachineIcon.tsx:8:11:333:42:e:stop" offset="100%" stop-color="#1E88E5"/></linearGradient></defs><rect width="40" height="28" x="12" y="16" fill="#fff" data-fg-bgim7="1.16:1.1237:/src/app/components/repo-icons/WorksOnMyMachineIcon.tsx:12:7:453:78:e:rect" opacity=".9" rx="2"/><rect width="36" height="24" x="14" y="18" fill="#1E88E5" data-fg-bgim8="1.16:1.1237:/src/app/components/repo-icons/WorksOnMyMachineIcon.tsx:13:7:538:66:e:rect" rx="1"/><circle cx="44" cy="36" r="12" fill="#FFD54F" stroke="#fff" stroke-width="2" data-fg-bgim10="1.16:1.1237:/src/app/components/repo-icons/WorksOnMyMachineIcon.tsx:15:7:642:78:e:circle"/><path fill="#FB8C00" d="m44 30 2 5 5 1-5 2-2 5-2-5-5-2 5-1Z" data-fg-bgim11="1.16:1.1237:/src/app/components/repo-icons/WorksOnMyMachineIcon.tsx:16:7:727:109:e:path"/><path fill="#fff" d="M28 44h8v4h-8z" data-fg-bgim13="1.16:1.1237:/src/app/components/repo-icons/WorksOnMyMachineIcon.tsx:21:7:871:69:e:rect" opacity=".9"/><path fill="#fff" d="M22 48h20v2H22z" data-fg-bgim14="1.16:1.1237:/src/app/components/repo-icons/WorksOnMyMachineIcon.tsx:22:7:947:70:e:rect" opacity=".9"/><path stroke="#fff" stroke-linecap="round" stroke-linejoin="round" stroke-width="2" d="m22 28 4 4 8-8" data-fg-bgim16="1.16:1.1237:/src/app/components/repo-icons/WorksOnMyMachineIcon.tsx:24:7:1058:160:e:path"/></g><text x="520" y="270" fill="#E6EDF7" font-size="54" font-weight="700" letter-spacing="-.02em">works-on-my</text><text x="520" y="328" fill="#E6EDF7" font-size="54" font-weight="700" letter-spacing="-.02em">machine-badge</text><text x="520" y="408" fill="#9AA8BD" font-size="26">Repo-only badges that update from real CI</text><text x="520" y="440" fill="#9AA8BD" font-size="26">results.</text><g transform="translate(520 420)"><rect width="159" height="40" fill="#111827" stroke="#263142" rx="20"/><text x="18" y="26" fill="#E6EDF7" font-size="22">Repo badge</text></g><g transform="translate(693 420)"><rect width="159" height="40" fill="#111827" stroke="#263142" rx="20"/><text x="18" y="26" fill="#E6EDF7" font-size="22">PR comment</text></g><rect width="200" height="12" x="980" y="460" fill="#22C55E" fill-opacity=".25" rx="6"/><rect width="160" height="12" x="980" y="488" fill="#22C55E" fill-opacity=".35" rx="6"/></svg>